<svg xmlns="http://www.w3.org/2000/svg" xmlns:xlink="http://www.w3.org/1999/xlink" width="74.123" height="90.53" viewBox="0 0 74.123 90.53">
  <defs>
    <clipPath id="clip-path">
      <rect id="사각형_5346" data-name="사각형 5346" width="70.667" height="87.052" fill="none"/>
    </clipPath>
  </defs>
  <g id="그룹_5237" data-name="그룹 5237" transform="translate(-935.286 -1332.209)">
    <path id="패스_17190" data-name="패스 17190" d="M56.87,30.477a36.934,36.934,0,0,1,5.705.423,3.515,3.515,0,0,1,2.848,2.848c.1.6,2.472,14.814-5.313,22.6-4.739,4.74-11.8,5.735-16.9,5.735a36.1,36.1,0,0,1-5.7-.422,3.515,3.515,0,0,1-2.848-2.848c-.1-.6-2.474-14.814,5.312-22.6C44.715,31.472,51.779,30.477,56.87,30.477Zm1.93,7.057c-.575-.034-1.238-.052-1.93-.057-3.085,0-8.739.479-11.945,3.684-3.428,3.428-3.867,9.816-3.638,13.864.575.034,1.224.056,1.926.056,3.086,0,8.741-.479,11.947-3.685C58.589,47.969,59.028,41.581,58.8,37.534Z" transform="translate(943.567 1339.855)" fill="#fff"/>
    <path id="패스_17191" data-name="패스 17191" d="M6.972,30.477c5.091,0,12.155.995,16.9,5.735,7.785,7.785,5.417,22,5.312,22.6a3.515,3.515,0,0,1-2.848,2.848,36.1,36.1,0,0,1-5.7.422c-5.092,0-12.157-1-16.9-5.736C-2.15,50.465-2.273,40.864-1.823,35.665c.086-1.023.242-1.917.242-1.917A3.52,3.52,0,0,1,1.267,30.9,36.1,36.1,0,0,1,6.972,30.477ZM22.556,55.025c.229-4.048-.21-10.436-3.638-13.864-3.206-3.206-8.86-3.684-11.945-3.684-.694,0-1.337.022-1.907.055-.185,3.7.055,10.3,3.617,13.864,3.206,3.207,8.861,3.685,11.947,3.685C21.332,55.082,21.981,55.059,22.556,55.025Z" transform="translate(937.268 1339.855)" fill="#fff"/>
    <path id="선_1050" data-name="선 1050" d="M0,45.1a3.5,3.5,0,0,1-3.5-3.5V0A3.5,3.5,0,0,1,0-3.5,3.5,3.5,0,0,1,3.5,0V41.6A3.5,3.5,0,0,1,0,45.1Z" transform="translate(972.339 1377.635)" fill="#fff"/>
    <path id="선_1053" data-name="선 1053" d="M33.2,36.7a3.489,3.489,0,0,1-2.475-1.025l-33.2-33.2a3.5,3.5,0,0,1,0-4.95,3.5,3.5,0,0,1,4.95,0l33.2,33.2A3.5,3.5,0,0,1,33.2,36.7Z" transform="translate(939.137 1374.203)" fill="#fff"/>
    <path id="선_1054" data-name="선 1054" d="M0,36.7a3.489,3.489,0,0,1-2.475-1.025,3.5,3.5,0,0,1,0-4.95l33.2-33.2a3.5,3.5,0,0,1,4.95,0,3.5,3.5,0,0,1,0,4.95l-33.2,33.2A3.489,3.489,0,0,1,0,36.7Z" transform="translate(972.339 1374.203)" fill="#fff"/>
    <path id="패스_17192" data-name="패스 17192" d="M31.779,43.348A14.848,14.848,0,0,1,16.948,28.517V22.084a3.5,3.5,0,0,1,3.5-3.5H43.109a3.5,3.5,0,0,1,3.5,3.5v6.433A14.847,14.847,0,0,1,31.779,43.348ZM23.948,25.584v2.933a7.831,7.831,0,1,0,15.661,0V25.584Z" transform="translate(940.56 1337.787)" fill="#fff"/>
    <path id="사각형_5347" data-name="사각형 5347" d="M0-3.5H29.526a3.5,3.5,0,0,1,3.5,3.5V9.344a3.5,3.5,0,0,1-3.5,3.5H0a3.5,3.5,0,0,1-3.5-3.5V0A3.5,3.5,0,0,1,0-3.5Zm26.026,7H3.5V5.844H26.026Z" transform="translate(957.576 1350.526)" fill="#fff"/>
    <path id="패스_17193" data-name="패스 17193" d="M24.451-2a7.145,7.145,0,0,1,7.137,7.137V16.318a3.5,3.5,0,0,1-3.5,3.5H20.814a3.5,3.5,0,0,1-3.5-3.5V5.137A7.145,7.145,0,0,1,24.451-2Zm.137,14.818V5.137L24.451,5a.137.137,0,0,0-.137.137v7.681Z" transform="translate(940.624 1334.209)" fill="#fff"/>
    <path id="패스_17194" data-name="패스 17194" d="M36.828-2a7.145,7.145,0,0,1,7.137,7.137V16.318a3.5,3.5,0,0,1-3.5,3.5H33.191a3.5,3.5,0,0,1-3.5-3.5V5.137A7.145,7.145,0,0,1,36.828-2Zm.137,14.818V5.137L36.828,5a.137.137,0,0,0-.137.137v7.681Z" transform="translate(942.776 1334.209)" fill="#fff"/>
    <g id="그룹_5236" data-name="그룹 5236" transform="translate(937.005 1333.948)">
      <rect id="사각형_5344" data-name="사각형 5344" width="29.526" height="9.344" transform="translate(20.571 16.578)" fill="#b0d7e1"/>
      <path id="사각형_5345" data-name="사각형 5345" d="M0-1.5H29.526a1.5,1.5,0,0,1,1.5,1.5V9.344a1.5,1.5,0,0,1-1.5,1.5H0a1.5,1.5,0,0,1-1.5-1.5V0A1.5,1.5,0,0,1,0-1.5Zm28.026,3H1.5V7.844H28.026Z" transform="translate(20.571 16.578)" fill="#3d345f"/>
      <g id="그룹_5235" data-name="그룹 5235" transform="translate(0 0)">
        <g id="그룹_5234" data-name="그룹 5234" clip-path="url(#clip-path)">
          <path id="패스_17180" data-name="패스 17180" d="M31.779,39.848h0A11.331,11.331,0,0,1,20.448,28.517V22.084H43.109v6.433a11.331,11.331,0,0,1-11.33,11.331" transform="translate(3.555 3.84)" fill="#b0d7e1"/>
          <path id="패스_17181" data-name="패스 17181" d="M31.779,41.348A12.831,12.831,0,0,1,18.948,28.517V22.084a1.5,1.5,0,0,1,1.5-1.5H43.109a1.5,1.5,0,0,1,1.5,1.5v6.433a12.831,12.831,0,0,1-12.83,12.831ZM21.948,23.584v4.933a9.831,9.831,0,1,0,19.661,0V23.584Z" transform="translate(3.555 3.84)" fill="#3d345f"/>
          <path id="패스_17182" data-name="패스 17182" d="M24.451,1.5h0a3.637,3.637,0,0,0-3.637,3.637V16.318h7.273V5.137A3.637,3.637,0,0,0,24.451,1.5" transform="translate(3.619 0.261)" fill="#fff"/>
          <path id="패스_17183" data-name="패스 17183" d="M24.451,0a5.142,5.142,0,0,1,5.137,5.137V16.318a1.5,1.5,0,0,1-1.5,1.5H20.814a1.5,1.5,0,0,1-1.5-1.5V5.137A5.142,5.142,0,0,1,24.451,0Zm2.137,14.818V5.137a2.137,2.137,0,1,0-4.273,0v9.681Z" transform="translate(3.619 0.261)" fill="#3d345f"/>
          <path id="패스_17184" data-name="패스 17184" d="M36.828,1.5h0a3.637,3.637,0,0,1,3.637,3.637V16.318H33.191V5.137A3.637,3.637,0,0,1,36.828,1.5" transform="translate(5.77 0.261)" fill="#fff"/>
          <path id="패스_17185" data-name="패스 17185" d="M36.828,0a5.142,5.142,0,0,1,5.137,5.137V16.318a1.5,1.5,0,0,1-1.5,1.5H33.191a1.5,1.5,0,0,1-1.5-1.5V5.137A5.142,5.142,0,0,1,36.828,0Zm2.137,14.818V5.137a2.137,2.137,0,0,0-4.273,0v9.681Z" transform="translate(5.77 0.261)" fill="#3d345f"/>
          <line id="선_1044" data-name="선 1044" y2="41.604" transform="translate(35.334 43.687)" fill="#b0d7e1"/>
          <path id="선_1045" data-name="선 1045" d="M0,43.1a1.5,1.5,0,0,1-1.5-1.5V0A1.5,1.5,0,0,1,0-1.5,1.5,1.5,0,0,1,1.5,0V41.6A1.5,1.5,0,0,1,0,43.1Z" transform="translate(35.334 43.687)" fill="#3d345f"/>
          <path id="패스_17186" data-name="패스 17186" d="M21.395,38.687c6.59,6.59,4.339,19.525,4.339,19.525S12.8,60.462,6.21,53.871,1.87,34.348,1.87,34.348,14.8,32.1,21.395,38.687" transform="translate(0.261 5.907)" fill="#00b4af"/>
          <path id="패스_17187" data-name="패스 17187" d="M6.974,32.477c4.713,0,11.225.893,15.481,5.149a16.211,16.211,0,0,1,3.82,6.416,26.888,26.888,0,0,1,1.257,6.782,35.677,35.677,0,0,1-.321,7.645,1.5,1.5,0,0,1-1.221,1.221,34.245,34.245,0,0,1-5.359.393c-4.714,0-11.227-.893-15.483-5.15a16.209,16.209,0,0,1-3.82-6.415A26.887,26.887,0,0,1,.072,41.735a35.677,35.677,0,0,1,.32-7.644A1.5,1.5,0,0,1,1.613,32.87,34.248,34.248,0,0,1,6.974,32.477ZM24.4,56.877c.34-3.116.845-12.222-4.063-17.13-3.529-3.529-9.213-4.27-13.36-4.27a34.708,34.708,0,0,0-3.768.205C2.867,38.8,2.363,47.9,7.27,52.811c3.529,3.53,9.214,4.271,13.361,4.271A34.712,34.712,0,0,0,24.4,56.877Z" transform="translate(0.261 5.907)" fill="#3d345f"/>
          <line id="선_1046" data-name="선 1046" x2="33.202" y2="33.202" transform="translate(2.132 40.255)" fill="#00b4af"/>
          <path id="선_1047" data-name="선 1047" d="M33.2,34.7a1.5,1.5,0,0,1-1.061-.439l-33.2-33.2a1.5,1.5,0,0,1,0-2.121,1.5,1.5,0,0,1,2.121,0l33.2,33.2A1.5,1.5,0,0,1,33.2,34.7Z" transform="translate(2.132 40.255)" fill="#3d345f"/>
          <path id="패스_17188" data-name="패스 17188" d="M42.451,38.687c-6.59,6.59-4.339,19.525-4.339,19.525s12.935,2.25,19.524-4.34,4.34-19.524,4.34-19.524S49.041,32.1,42.451,38.687" transform="translate(6.561 5.907)" fill="#00b4af"/>
          <path id="패스_17189" data-name="패스 17189" d="M56.87,32.477h0a34.259,34.259,0,0,1,5.361.393,1.5,1.5,0,0,1,1.221,1.221,35.677,35.677,0,0,1,.32,7.644,26.887,26.887,0,0,1-1.257,6.782,16.209,16.209,0,0,1-3.82,6.415c-4.255,4.256-10.768,5.15-15.483,5.15a34.245,34.245,0,0,1-5.359-.393,1.5,1.5,0,0,1-1.221-1.221,35.676,35.676,0,0,1-.321-7.645,26.888,26.888,0,0,1,1.257-6.782,16.211,16.211,0,0,1,3.82-6.416C45.645,33.371,52.157,32.477,56.87,32.477Zm3.769,3.205a34.727,34.727,0,0,0-3.768-.205h0c-4.146,0-9.829.741-13.359,4.27-4.907,4.907-4.4,14.013-4.063,17.13a34.713,34.713,0,0,0,3.765.205c4.147,0,9.832-.741,13.361-4.271C61.481,47.905,60.979,38.8,60.639,35.682Z" transform="translate(6.561 5.907)" fill="#3d345f"/>
          <line id="선_1048" data-name="선 1048" x1="33.202" y2="33.202" transform="translate(35.333 40.255)" fill="#00b4af"/>
          <path id="선_1049" data-name="선 1049" d="M0,34.7a1.5,1.5,0,0,1-1.061-.439,1.5,1.5,0,0,1,0-2.121l33.2-33.2a1.5,1.5,0,0,1,2.121,0,1.5,1.5,0,0,1,0,2.121l-33.2,33.2A1.5,1.5,0,0,1,0,34.7Z" transform="translate(35.333 40.255)" fill="#3d345f"/>
          <path id="선_1051" data-name="선 1051" d="M33.2,34.7a1.5,1.5,0,0,1-1.061-.439l-33.2-33.2a1.5,1.5,0,0,1,0-2.121,1.5,1.5,0,0,1,2.121,0l33.2,33.2A1.5,1.5,0,0,1,33.2,34.7Z" transform="translate(2.132 40.255)" fill="#3d345f"/>
          <path id="선_1052" data-name="선 1052" d="M0,34.7a1.5,1.5,0,0,1-1.061-.439,1.5,1.5,0,0,1,0-2.121l33.2-33.2a1.5,1.5,0,0,1,2.121,0,1.5,1.5,0,0,1,0,2.121l-33.2,33.2A1.5,1.5,0,0,1,0,34.7Z" transform="translate(35.333 40.255)" fill="#3d345f"/>
        </g>
      </g>
    </g>
  </g>
</svg>
