<svg xmlns="http://www.w3.org/2000/svg" xmlns:xlink="http://www.w3.org/1999/xlink" width="73.301" height="90.578" viewBox="0 0 73.301 90.578">
  <defs>
    <clipPath id="clip-path">
      <rect id="사각형_5342" data-name="사각형 5342" width="73.301" height="90.578" fill="none" stroke="#707070" stroke-width="1"/>
    </clipPath>
  </defs>
  <g id="그룹_5229" data-name="그룹 5229" transform="translate(6 28)">
    <g id="그룹_5228" data-name="그룹 5228" transform="translate(-6 -28)" clip-path="url(#clip-path)">
      <path id="패스_17165" data-name="패스 17165" d="M56.23,9.675a4.087,4.087,0,1,0,0-8.175H5.588a4.087,4.087,0,1,0,0,8.175h.657V33.637H5.588a4.087,4.087,0,1,0,0,8.175h.657V65.774H5.588a4.088,4.088,0,1,0,0,8.176H56.23a4.088,4.088,0,0,0,0-8.176h-.657V41.812h.657a4.087,4.087,0,1,0,0-8.175h-.657V9.675Z" transform="translate(5.742 7.564)" fill="#fff"/>
      <path id="패스_17165_-_윤곽선" data-name="패스 17165 - 윤곽선" d="M5.588-2.5H56.23a8.087,8.087,0,0,1,3.343,15.451V30.473a7.911,7.911,0,0,1,4.745,7.252,8.1,8.1,0,0,1-4.745,7.363V62.61a7.911,7.911,0,0,1,4.745,7.252A8.1,8.1,0,0,1,56.23,77.95H5.588A8.088,8.088,0,0,1,2.245,62.5V44.975A7.909,7.909,0,0,1-2.5,37.725,8.1,8.1,0,0,1,2.245,30.36V12.838A7.911,7.911,0,0,1-2.5,5.587,8.1,8.1,0,0,1,5.588-2.5ZM55.573,5.675,5.588,5.5a.087.087,0,0,0-.088.087h4l.745,4.088v60.1h-4l45.983.162-.655-4.162V37.812h0V5.675Z" transform="translate(5.742 7.564)" fill="#fff"/>
      <path id="패스_17166" data-name="패스 17166" d="M5.588,0H56.23a5.588,5.588,0,0,1,.843,11.111V32.2a5.588,5.588,0,0,1,0,11.048V64.337A5.588,5.588,0,0,1,56.23,75.45H5.588a5.588,5.588,0,0,1-.843-11.113V43.248a5.588,5.588,0,0,1,0-11.048V11.111A5.588,5.588,0,0,1,5.588,0ZM56.23,8.175A2.587,2.587,0,1,0,56.23,3H5.588a2.587,2.587,0,1,0,0,5.175h.657a1.5,1.5,0,0,1,1.5,1.5V33.637a1.5,1.5,0,0,1-1.5,1.5H5.588a2.587,2.587,0,1,0,0,5.175h.657a1.5,1.5,0,0,1,1.5,1.5V65.774a1.5,1.5,0,0,1-1.5,1.5H5.588a2.588,2.588,0,1,0,0,5.176H56.23a2.588,2.588,0,0,0,0-5.176h-.657a1.5,1.5,0,0,1-1.5-1.5V41.812a1.5,1.5,0,0,1,1.5-1.5h.657a2.587,2.587,0,1,0,0-5.175h-.657a1.5,1.5,0,0,1-1.5-1.5V9.675a1.5,1.5,0,0,1,1.5-1.5Z" transform="translate(5.742 7.564)" fill="#3d345f"/>
      <line id="선_1032" data-name="선 1032" x2="49.985" transform="translate(11.33 17.24)" fill="#fff"/>
      <path id="선_1033" data-name="선 1033" d="M49.985,1.5H0A1.5,1.5,0,0,1-1.5,0,1.5,1.5,0,0,1,0-1.5H49.985a1.5,1.5,0,0,1,1.5,1.5A1.5,1.5,0,0,1,49.985,1.5Z" transform="translate(11.33 17.24)" fill="#3d345f"/>
      <line id="선_1034" data-name="선 1034" x1="49.327" transform="translate(11.987 49.377)" fill="#fff"/>
      <path id="선_1035" data-name="선 1035" d="M49.327,1.5H0A1.5,1.5,0,0,1-1.5,0,1.5,1.5,0,0,1,0-1.5H49.327a1.5,1.5,0,0,1,1.5,1.5A1.5,1.5,0,0,1,49.327,1.5Z" transform="translate(11.987 49.377)" fill="#3d345f"/>
      <line id="선_1036" data-name="선 1036" x2="49.327" transform="translate(11.987 41.202)" fill="#fff"/>
      <path id="선_1037" data-name="선 1037" d="M49.327,1.5H0A1.5,1.5,0,0,1-1.5,0,1.5,1.5,0,0,1,0-1.5H49.327a1.5,1.5,0,0,1,1.5,1.5A1.5,1.5,0,0,1,49.327,1.5Z" transform="translate(11.987 41.202)" fill="#3d345f"/>
      <line id="선_1038" data-name="선 1038" x1="49.327" transform="translate(11.987 73.339)" fill="#fff"/>
      <path id="선_1039" data-name="선 1039" d="M49.327,1.5H0A1.5,1.5,0,0,1-1.5,0,1.5,1.5,0,0,1,0-1.5H49.327a1.5,1.5,0,0,1,1.5,1.5A1.5,1.5,0,0,1,49.327,1.5Z" transform="translate(11.987 73.339)" fill="#3d345f"/>
      <path id="패스_17167" data-name="패스 17167" d="M46.62,34.824A17.552,17.552,0,1,1,29.066,17.272,17.554,17.554,0,0,1,46.62,34.824" transform="translate(7.584 10.465)" fill="#b0d7e1"/>
      <path id="패스_17168" data-name="패스 17168" d="M29.066,15.772a18.994,18.994,0,1,1-7.416,1.5A18.935,18.935,0,0,1,29.066,15.772Zm0,35.1a16.052,16.052,0,1,0-16.05-16.052A16.071,16.071,0,0,0,29.066,50.877Z" transform="translate(7.584 10.465)" fill="#3d345f"/>
      <path id="패스_17169" data-name="패스 17169" d="M34.683,35.779a7.221,7.221,0,1,1-14.442,0c0-3.989,7.221-11.652,7.221-11.652s7.222,7.663,7.222,11.652" transform="translate(9.188 11.725)" fill="#fff"/>
    </g>
  </g>
</svg>
