<?xml version="1.0" encoding="UTF-8"?>
<svg id="_레이어_1" data-name="레이어 1" xmlns="http://www.w3.org/2000/svg" xmlns:xlink="http://www.w3.org/1999/xlink" viewBox="0 0 280 325.94">
  <defs>
    <style>
      .cls-1 {
        fill: none;
      }

      .cls-1, .cls-2, .cls-3, .cls-4 {
        stroke-width: 0px;
      }

      .cls-2 {
        fill: #b0d7e1;
      }

      .cls-3 {
        fill: #fff;
      }

      .cls-5 {
        clip-path: url(#clippath);
      }

      .cls-4 {
        fill: #3d345f;
      }
    </style>
    <clipPath id="clippath">
      <rect class="cls-1" x="9.18" y="10.11" width="261.61" height="252.59"/>
    </clipPath>
  </defs>
  <g id="_그룹_30958" data-name="그룹 30958">
    <path id="_패스_17174" data-name="패스 17174" class="cls-3" d="m269.39,264.08H10.61c-5.86,0-10.61-4.75-10.61-10.61h0c0-5.86,4.75-10.61,10.61-10.61h258.78c5.86,0,10.61,4.75,10.61,10.61h0c0,5.86-4.75,10.61-10.61,10.61h0Z"/>
    <path id="_패스_17173" data-name="패스 17173" class="cls-4" d="m163.32,254.53c-1.48,0-2.77-1.03-3.1-2.48l-35.59-156.19c-1.41-6.16-7.54-10.02-13.7-8.61-4.29.98-7.63,4.33-8.61,8.61l-35.57,156.19c-.35,1.72-2.03,2.83-3.75,2.48-1.72-.35-2.83-2.03-2.48-3.75,0-.05.02-.09.03-.14l35.57-156.19c2.19-9.59,11.74-15.58,21.32-13.4,6.67,1.52,11.87,6.73,13.4,13.4l35.59,156.19c.39,1.72-.69,3.42-2.4,3.81-.23.05-.47.08-.71.08h0Z"/>
    <path id="_패스_17173_-_윤곽선" data-name="패스 17173 - 윤곽선" class="cls-3" d="m62.43,265.13l-1.89-.35c-7.42-1.7-12.07-9.08-10.39-16.51l35.59-156.19c3.5-15.3,18.73-24.86,34.03-21.36,10.63,2.43,18.93,10.73,21.36,21.36l35.59,156.19c1.68,7.42-2.96,14.81-10.39,16.51l-1.16.26-1.89.08h0c-6.44.02-12.03-4.44-13.44-10.73l-35.56-156.18-37.22,156.19c-1.4,6.29-7,10.75-13.44,10.73h-1.2Z"/>
    <path id="_선_1045" data-name="선 1045" class="cls-3" d="m137.46,229.21c-1.67,0-3.32-.39-4.82-1.15l-43.94-22.44c-5.22-2.66-7.29-9.05-4.63-14.27,2.66-5.21,9.05-7.29,14.26-4.63l43.95,22.43c5.22,2.66,7.29,9.05,4.63,14.27-1.81,3.55-5.47,5.79-9.46,5.79Z"/>
    <path id="_선_1046" data-name="선 1046" class="cls-3" d="m127.06,181.48c-1.67,0-3.32-.41-4.81-1.18l-24.25-12.36c-5.22-2.66-7.29-9.05-4.63-14.27,2.66-5.21,9.05-7.29,14.26-4.63l24.26,12.37c5.22,2.65,7.3,9.04,4.65,14.26-1.81,3.57-5.48,5.81-9.48,5.8Z"/>
    <path id="_선_1047" data-name="선 1047" class="cls-3" d="m81.47,263.3c-3.98,0-7.63-2.24-9.44-5.79-2.66-5.22-.59-11.6,4.63-14.27l57.05-29.12c5.22-2.66,11.6-.59,14.26,4.63,2.66,5.22.59,11.6-4.63,14.27l-57.06,29.12c-1.49.76-3.14,1.16-4.81,1.16Z"/>
    <path id="_선_1048" data-name="선 1048" class="cls-3" d="m94.6,203.56c-3.98,0-7.63-2.24-9.44-5.79-2.65-5.21-.59-11.58,4.61-14.25l33.7-17.2c5.22-2.66,11.6-.59,14.27,4.63,2.66,5.22.59,11.6-4.63,14.27l-33.7,17.2c-1.49.76-3.14,1.15-4.81,1.15Z"/>
    <path id="_패스_17174-2" data-name="패스 17174-2" class="cls-4" d="m130.47,103.5c-1.76,0-3.18-1.42-3.18-3.18,0-1.24.72-2.36,1.84-2.88l76.98-35.9-3.57-7.64-76.94,35.87c-1.59.74-3.49.05-4.23-1.54-.74-1.59-.05-3.49,1.54-4.23h0l79.84-37.23c1.59-.74,3.48-.05,4.23,1.54l6.26,13.41c.74,1.59.06,3.49-1.54,4.23,0,0,0,0,0,0l-79.88,37.25c-.42.2-.88.3-1.34.3Z"/>
    <path id="_패스_17174_-_윤곽선" data-name="패스 17174 - 윤곽선" class="cls-3" d="m130.47,114.11h0c-7.61,0-13.78-6.18-13.77-13.79,0-.61.04-1.23.12-1.84-6.41-4.1-8.27-12.62-4.17-19.03,1.41-2.2,3.42-3.96,5.79-5.06l81.96-38.22,3.69-.3c5.35.02,10.22,3.12,12.49,7.96l6.26,13.4c3.22,6.9.23,15.1-6.67,18.32l-82.01,38.25-3.69.3Z"/>
    <path id="_패스_17175" data-name="패스 17175" class="cls-4" d="m21.64,154.25c-1.24,0-2.36-.72-2.88-1.84l-6.26-13.41c-.74-1.59-.05-3.48,1.54-4.23l81.74-38.12c1.59-.74,3.49-.05,4.23,1.54.74,1.59.05,3.49-1.54,4.23l-78.85,36.77,3.57,7.65,68.38-31.89c1.6-.72,3.49,0,4.2,1.61.7,1.57.03,3.4-1.51,4.15l-71.27,33.23c-.42.2-.88.3-1.34.3Z"/>
    <path id="_패스_17175_-_윤곽선" data-name="패스 17175 - 윤곽선" class="cls-3" d="m21.64,164.86h-1.87l-2.83-.83c-3.45-1.24-6.25-3.81-7.79-7.13l-6.25-13.41c-3.21-6.9-.23-15.1,6.67-18.32l83.87-39.11,3.69-.3c5.35.01,10.22,3.11,12.5,7.96,2.86,6.14.84,13.45-4.76,17.25.2.34.38.69.54,1.05,3.22,6.9.23,15.1-6.67,18.32l-73.39,34.22-3.71.3Z"/>
    <path id="_패스_17176" data-name="패스 17176" class="cls-4" d="m254.53,95.45c-.59,0-1.17-.16-1.67-.48l-44.54-27.57c-1.48-.95-1.9-2.92-.95-4.4.93-1.44,2.83-1.88,4.3-1.01l42.63,26.39,6.87-5.49-29.97-61.94-24.61-3.52-1.91,30.5c-.11,1.76-1.62,3.09-3.38,2.98s-3.09-1.62-2.98-3.38h0l2.13-33.94c.11-1.75,1.62-3.09,3.37-2.98.08,0,.17.01.25.03l29.7,4.24c1.05.15,1.95.81,2.41,1.76l31.82,65.75c.65,1.34.28,2.94-.87,3.87l-10.61,8.5c-.57.45-1.27.69-1.99.69Z"/>
    <path id="_패스_17176_-_윤곽선" data-name="패스 17176 - 윤곽선" class="cls-3" d="m254.53,106.06h-3.02l-4.24-2.06-44.54-27.58c-5.36-3.32-7.78-9.86-5.89-15.87-5.74-2.02-9.46-7.6-9.09-13.68l2.11-33.94c.25-3.84,2.08-7.4,5.06-9.83,2.46-2,5.53-3.09,8.7-3.1l31.64,4.38c4.54.65,8.47,3.51,10.46,7.64l31.82,65.75c2.83,5.79,1.25,12.77-3.8,16.77l-13.51,10.81-5.71.7Zm-39.83-54.33l2.55,1.24,25.22,15.61-18.36-37.94-7.65-1.09-1.19,19.04c-.07,1.07-.26,2.12-.57,3.14Z"/>
    <path id="_선_1045-2" data-name="선 1045-2" class="cls-4" d="m243.92,235.44c-1.76,0-3.18-1.42-3.18-3.18h0V88.02c0-1.76,1.42-3.18,3.18-3.18s3.18,1.42,3.18,3.18v144.23c0,1.76-1.42,3.18-3.18,3.18h0Z"/>
    <path id="_선_1045_-_윤곽선" data-name="선 1045 - 윤곽선" class="cls-3" d="m243.92,246.04c-7.61,0-13.78-6.17-13.79-13.78V88.02c0-7.61,6.18-13.78,13.79-13.79,7.61,0,13.78,6.18,13.79,13.79v144.23c-.01,7.61-6.18,13.78-13.79,13.78Z"/>
    <path id="_사각형_5352" data-name="사각형 5352" class="cls-4" d="m235.44,233.32h16.96c1.76,0,3.19,1.42,3.19,3.17,0,0,0,0,0,0v16.96c0,1.76-1.42,3.19-3.17,3.19,0,0-.01,0-.02,0h-16.96c-1.76,0-3.18-1.42-3.18-3.18,0,0,0,0,0,0v-16.96c0-1.76,1.42-3.18,3.18-3.18Zm13.79,6.36h-10.61v10.61h10.61v-10.61Z"/>
    <path id="_사각형_5352_-_윤곽선" data-name="사각형 5352 - 윤곽선" class="cls-3" d="m235.44,222.71h16.97c7.61,0,13.78,6.18,13.79,13.79v16.97c0,7.61-6.18,13.78-13.79,13.79h-16.97c-7.61,0-13.78-6.18-13.79-13.79v-16.97c0-7.61,6.18-13.78,13.79-13.79Z"/>
    <path id="_사각형_5353" data-name="사각형 5353" class="cls-4" d="m16.97,224.83h21.21c1.76,0,3.18,1.42,3.18,3.18,0,0,0,0,0,0v25.46c0,1.76-1.43,3.18-3.18,3.18h-21.21c-1.76,0-3.18-1.42-3.18-3.18v-25.46c0-1.76,1.42-3.18,3.18-3.18Zm18.03,6.36h-14.85v19.09h14.85v-19.09Z"/>
    <path id="_사각형_5353_-_윤곽선" data-name="사각형 5353 - 윤곽선" class="cls-3" d="m16.97,214.23h21.21c7.61.01,13.77,6.18,13.78,13.79v25.45c0,7.61-6.17,13.78-13.78,13.79h-21.21c-7.61,0-13.78-6.18-13.79-13.79v-25.45c0-7.61,6.18-13.78,13.79-13.79Z"/>
    <path id="_선_1046-2" data-name="선 1046-2" class="cls-4" d="m27.57,229.08c-1.76,0-3.18-1.42-3.18-3.18v-74.24c0-1.76,1.42-3.18,3.18-3.18s3.18,1.42,3.18,3.18v74.24c0,1.76-1.42,3.18-3.18,3.18Z"/>
    <path id="_선_1046_-_윤곽선" data-name="선 1046 - 윤곽선" class="cls-3" d="m27.57,239.68c-7.61,0-13.78-6.18-13.79-13.79v-74.24c0-7.61,6.18-13.78,13.79-13.79,7.61,0,13.78,6.18,13.79,13.79v74.24c0,7.61-6.18,13.78-13.79,13.79Z"/>
    <rect id="_사각형_5355" data-name="사각형 5355" class="cls-3" x="30.23" y="124.38" width="138.32" height="117.28"/>
    <rect id="_사각형_5356" data-name="사각형 5356" class="cls-3" x="120.45" y="73.26" width="114.27" height="174.41"/>
    <g id="_그룹_30957" data-name="그룹 30957">
      <g class="cls-5">
        <g id="_그룹_30956" data-name="그룹 30956">
          <path id="_패스_17170" data-name="패스 17170" class="cls-2" d="m205.58,52.9l-79.62,36.85c-6.68-5.73-16.74-4.96-22.47,1.72-1.69,1.97-2.87,4.32-3.45,6.85l-.87,3.84-81.4,37.67,5.17,11.16,72.78-33.69-31.02,136.17h18.53l32.1-137.87,32.1,137.87h19.09l-34.84-152.81,79.07-36.59-5.17-11.16Z"/>
          <path id="_패스_17171" data-name="패스 17171" class="cls-2" d="m236.5,20.15l-29.7-4.24-2.12,33.94,6.36,14.84,44.54,27.57,10.61-8.5-29.7-63.62Z"/>
          <path id="_패스_17173-2" data-name="패스 17173-2" class="cls-4" d="m269.37,256.65H10.6c-1.76,0-3.18-1.42-3.18-3.18s1.42-3.18,3.18-3.18h258.77c1.76,0,3.18,1.42,3.18,3.18h0c0,1.76-1.42,3.18-3.18,3.18h0Z"/>
          <path id="_패스_17172" data-name="패스 17172" class="cls-4" d="m146.02,254.98c-1.48,0-2.77-1.03-3.1-2.48l-29.44-129.22-29.44,129.19c-.43,1.7-2.16,2.74-3.86,2.31-1.65-.42-2.68-2.06-2.34-3.72l32.54-142.81c.39-1.71,2.1-2.78,3.81-2.39,1.19.27,2.12,1.2,2.39,2.39l32.54,142.83c.39,1.72-.69,3.42-2.4,3.81-.23.05-.47.08-.71.08h0Z"/>
          <path id="_패스_17173-3" data-name="패스 17173-3" class="cls-4" d="m163.32,254.53c-1.48,0-2.77-1.03-3.1-2.48l-35.59-156.19c-1.41-6.16-7.54-10.02-13.7-8.61-4.29.98-7.63,4.33-8.61,8.61l-35.57,156.19c-.35,1.72-2.03,2.83-3.75,2.48-1.72-.35-2.83-2.03-2.48-3.75,0-.05.02-.09.03-.14l35.57-156.19c2.19-9.59,11.74-15.58,21.32-13.4,6.67,1.52,11.87,6.73,13.4,13.4l35.59,156.19c.39,1.72-.69,3.42-2.4,3.81-.23.05-.47.08-.71.08h0Z"/>
          <path id="_선_1041" data-name="선 1041" class="cls-4" d="m137.47,221.78c-.5,0-1-.12-1.44-.35l-43.95-22.43c-1.57-.8-2.19-2.71-1.39-4.28.8-1.57,2.71-2.19,4.28-1.39l43.95,22.43c1.57.8,2.19,2.71,1.39,4.28-.54,1.07-1.64,1.74-2.84,1.74Z"/>
          <path id="_선_1042" data-name="선 1042" class="cls-4" d="m127.07,174.06c-.5,0-1-.12-1.44-.35l-24.26-12.38c-1.57-.8-2.19-2.71-1.39-4.28.8-1.57,2.71-2.19,4.28-1.39l24.26,12.38c1.57.8,2.19,2.71,1.39,4.28-.54,1.07-1.64,1.74-2.84,1.74h0Z"/>
          <path id="_선_1043" data-name="선 1043" class="cls-4" d="m81.46,255.88c-1.2,0-2.29-.67-2.83-1.74-.8-1.57-.18-3.48,1.39-4.28l57.06-29.12c1.57-.8,3.48-.18,4.28,1.39.8,1.57.17,3.48-1.39,4.28,0,0,0,0,0,0l-57.06,29.12c-.45.23-.94.35-1.44.35Z"/>
          <path id="_선_1044" data-name="선 1044" class="cls-4" d="m94.59,196.16c-1.2,0-2.29-.67-2.83-1.74-.8-1.57-.18-3.48,1.39-4.28l33.69-17.2c1.57-.8,3.48-.18,4.28,1.39.8,1.57.18,3.48-1.39,4.28l-33.7,17.2c-.45.23-.94.35-1.44.35Z"/>
          <path id="_패스_17174-3" data-name="패스 17174-3" class="cls-4" d="m130.47,103.5c-1.76,0-3.18-1.42-3.18-3.18,0-1.24.72-2.36,1.84-2.88l76.98-35.9-3.57-7.64-76.94,35.87c-1.59.74-3.49.05-4.23-1.54-.74-1.59-.05-3.49,1.54-4.23h0l79.84-37.23c1.59-.74,3.48-.05,4.23,1.54l6.26,13.41c.74,1.59.06,3.49-1.54,4.23,0,0,0,0,0,0l-79.88,37.25c-.42.2-.88.3-1.34.3Z"/>
          <path id="_패스_17175-2" data-name="패스 17175-2" class="cls-4" d="m21.64,154.25c-1.24,0-2.36-.72-2.88-1.84l-6.26-13.41c-.74-1.59-.05-3.48,1.54-4.23l81.74-38.12c1.59-.74,3.49-.05,4.23,1.54.74,1.59.05,3.49-1.54,4.23l-78.85,36.77,3.57,7.65,68.38-31.89c1.6-.72,3.49,0,4.2,1.61.7,1.57.03,3.4-1.51,4.15l-71.27,33.23c-.42.2-.88.3-1.34.3Z"/>
          <path id="_패스_17176-2" data-name="패스 17176-2" class="cls-4" d="m254.53,95.45c-.59,0-1.17-.16-1.67-.48l-44.54-27.57c-1.48-.95-1.9-2.92-.95-4.4.93-1.44,2.83-1.88,4.3-1.01l42.63,26.39,6.87-5.49-29.97-61.94-24.61-3.52-1.91,30.5c-.11,1.76-1.62,3.09-3.38,2.98s-3.09-1.62-2.98-3.38h0l2.13-33.94c.11-1.75,1.62-3.09,3.37-2.98.08,0,.17.01.25.03l29.7,4.24c1.05.15,1.95.81,2.41,1.76l31.82,65.75c.65,1.34.28,2.94-.87,3.87l-10.61,8.5c-.57.45-1.27.69-1.99.69Z"/>
          <path id="_선_1045-3" data-name="선 1045-3" class="cls-4" d="m243.92,235.44c-1.76,0-3.18-1.42-3.18-3.18h0V88.03c0-1.76,1.42-3.18,3.18-3.18s3.18,1.42,3.18,3.18v144.23c0,1.76-1.42,3.18-3.18,3.18h0Z"/>
          <path id="_사각형_5352-2" data-name="사각형 5352-2" class="cls-4" d="m235.44,233.32h16.96c1.76,0,3.19,1.42,3.19,3.17,0,0,0,0,0,0v16.96c0,1.76-1.42,3.19-3.17,3.19,0,0-.01,0-.02,0h-16.96c-1.76,0-3.18-1.42-3.18-3.18,0,0,0,0,0,0v-16.96c0-1.76,1.42-3.18,3.18-3.18Zm13.79,6.36h-10.61v10.61h10.61v-10.61Z"/>
          <path id="_사각형_5353-2" data-name="사각형 5353-2" class="cls-4" d="m16.97,224.83h21.21c1.76,0,3.18,1.42,3.18,3.18,0,0,0,0,0,0v25.46c0,1.76-1.43,3.18-3.18,3.18h-21.21c-1.76,0-3.18-1.42-3.18-3.18v-25.46c0-1.76,1.42-3.18,3.18-3.18Zm18.03,6.36h-14.85v19.09h14.85v-19.09Z"/>
          <path id="_선_1046-3" data-name="선 1046-3" class="cls-4" d="m27.57,229.08c-1.76,0-3.18-1.42-3.18-3.18v-74.24c0-1.76,1.42-3.18,3.18-3.18s3.18,1.42,3.18,3.18v74.24c0,1.76-1.42,3.18-3.18,3.18Z"/>
        </g>
      </g>
    </g>
  </g>
</svg>