<svg xmlns="http://www.w3.org/2000/svg" width="88.796" height="88.796" viewBox="0 0 88.796 88.796">
  <g id="그룹_30956" data-name="그룹 30956" transform="translate(-1059 -1310)">
    <path id="패스_17156" data-name="패스 17156" d="M72.369,36.934A35.435,35.435,0,1,1,36.935,1.5,35.434,35.434,0,0,1,72.369,36.934" transform="translate(1066.464 1317.463)" fill="#fff" stroke="#fff" stroke-width="8"/>
    <path id="패스_17157" data-name="패스 17157" d="M72.369,36.934A35.435,35.435,0,1,1,36.935,1.5,35.434,35.434,0,0,1,72.369,36.934Z" transform="translate(1066.464 1317.463)" fill="none" stroke="#3d345f" stroke-linecap="round" stroke-linejoin="round" stroke-width="3"/>
    <rect id="사각형_5341" data-name="사각형 5341" width="88.796" height="88.796" transform="translate(1059 1310)" fill="none"/>
    <path id="패스_17197" data-name="패스 17197" d="M22.344,0c-12.2,5.892-12.167,15.038-11.677,21.387a3.3,3.3,0,0,1-3.12,3.751A3.479,3.479,0,0,1,3.8,22.018l-.171-2.709A25.457,25.457,0,0,0,0,31.77c0,8.6,4.577,16.792,12.44,19.272a8.344,8.344,0,0,1-2.2-5.742c0-8.672,7.246-9.664,7.246-18.879a43.162,43.162,0,0,1,2.33,3.758c2.709,4.921,2.267,10.593.777,13.554,1.449-.5,2.961-2.228,3.613-4.9a25.681,25.681,0,0,1,1.19,6.4,8.256,8.256,0,0,1-2.344,5.795C33.748,47.9,38.184,35.852,33.372,26.389,30.157,20.07,17.992,10.667,22.344,0" transform="translate(1085.745 1328.876)" fill="#b0d7e1" stroke="#3d345f" stroke-linecap="round" stroke-linejoin="round" stroke-width="3" fill-rule="evenodd"/>
  </g>
</svg>
